<svg xmlns="http://www.w3.org/2000/svg" width="16" height="16" viewBox="0 0 16 16" fill="none">
    <path fill-rule="evenodd" clip-rule="evenodd" d="M4.70205 0.0483336C5.55539 0.00950003 5.82806 0 8.00075 0H7.99825C10.1716 0 10.4433 0.00950003 11.2966 0.0483336C12.1483 0.0873342 12.73 0.222169 13.24 0.420004C13.7666 0.624173 14.2116 0.89751 14.6567 1.34251C15.1017 1.78719 15.375 2.23352 15.58 2.7597C15.7767 3.26837 15.9117 3.84971 15.9517 4.70138C15.99 5.55472 16 5.82739 16 8.00008C16 10.1728 15.99 10.4448 15.9517 11.2981C15.9117 12.1495 15.7767 12.731 15.58 13.2398C15.375 13.7658 15.1017 14.2121 14.6567 14.6568C14.2121 15.1018 13.7665 15.3758 13.2405 15.5802C12.7315 15.778 12.1495 15.9128 11.2978 15.9518C10.4444 15.9907 10.1726 16.0002 7.99975 16.0002C5.82723 16.0002 5.55472 15.9907 4.70138 15.9518C3.84987 15.9128 3.26837 15.778 2.75936 15.5802C2.23352 15.3758 1.78719 15.1018 1.34268 14.6568C0.897843 14.2121 0.624506 13.7658 0.420004 13.2396C0.222336 12.731 0.087501 12.1496 0.0483336 11.298C0.00966692 10.4446 0 10.1728 0 8.00008C0 5.82739 0.0100002 5.55456 0.0481672 4.70122C0.0865011 3.84987 0.221502 3.26837 0.419838 2.75953C0.62484 2.23352 0.898176 1.78719 1.34318 1.34251C1.78785 0.897676 2.23419 0.62434 2.76036 0.420004C3.26903 0.222169 3.85037 0.0873342 4.70205 0.0483336ZM7.73415 1.44162H7.73403H7.73391C7.57222 1.44155 7.42239 1.44148 7.28311 1.4417V1.4397C5.79209 1.44136 5.50609 1.45136 4.76808 1.4847C3.98808 1.52053 3.56457 1.65053 3.28257 1.76053C2.90923 1.90587 2.64256 2.0792 2.36256 2.35921C2.08256 2.63921 1.90889 2.90588 1.76389 3.27922C1.65439 3.56122 1.52405 3.98456 1.48838 4.76456C1.45005 5.60791 1.44238 5.85991 1.44238 7.99626C1.44238 10.1326 1.45005 10.386 1.48838 11.2293C1.52388 12.0093 1.65439 12.4326 1.76389 12.7143C1.90922 13.0878 2.08256 13.3538 2.36256 13.6338C2.64256 13.9138 2.90923 14.0872 3.28257 14.2322C3.56474 14.3417 3.98808 14.472 4.76808 14.508C5.61143 14.5463 5.8646 14.5547 8.00078 14.5547C10.1368 14.5547 10.3901 14.5463 11.2335 14.508C12.0135 14.4723 12.4372 14.3423 12.7188 14.2323C13.0923 14.0873 13.3582 13.914 13.6382 13.634C13.9182 13.3542 14.0918 13.0883 14.2368 12.715C14.3464 12.4333 14.4767 12.01 14.5124 11.23C14.5507 10.3866 14.559 10.1333 14.559 7.99827C14.559 5.86324 14.5507 5.60991 14.5124 4.76657C14.4769 3.98656 14.3464 3.56322 14.2368 3.28155C14.0915 2.90821 13.9182 2.64154 13.6382 2.36154C13.3583 2.08154 13.0922 1.9082 12.7188 1.7632C12.4368 1.6537 12.0135 1.52337 11.2335 1.4877C10.39 1.44936 10.1368 1.4417 8.00078 1.4417L7.73415 1.44162ZM3.89233 7.99998C3.89233 5.73117 5.73176 3.89169 8.00054 3.8916C10.2694 3.8916 12.1084 5.73112 12.1084 7.99998C12.1084 10.2688 10.2696 12.1075 8.00071 12.1075C5.73185 12.1075 3.89233 10.2688 3.89233 7.99998ZM10.6674 8.00019C10.6674 6.52734 9.47336 5.3335 8.00068 5.3335C6.52783 5.3335 5.33398 6.52734 5.33398 8.00019C5.33398 9.47287 6.52783 10.6669 8.00068 10.6669C9.47336 10.6669 10.6674 9.47287 10.6674 8.00019ZM11.3113 3.72979C11.3113 3.19961 11.7413 2.77011 12.2713 2.77011V2.76978C12.8013 2.76978 13.2313 3.19978 13.2313 3.72979C13.2313 4.25979 12.8013 4.6898 12.2713 4.6898C11.7413 4.6898 11.3113 4.25979 11.3113 3.72979Z" fill="white"/>
</svg>