<svg width="25" height="40" viewBox="0 0 25 40" fill="none" xmlns="http://www.w3.org/2000/svg">
<mask id="mask0" mask-type="alpha" maskUnits="userSpaceOnUse" x="0" y="0" width="25" height="40">
<path fill-rule="evenodd" clip-rule="evenodd" d="M0 40H25V0H0V40Z" fill="white"/>
</mask>
<g mask="url(#mask0)">
<path opacity="0.3" fill-rule="evenodd" clip-rule="evenodd" d="M12.52 40.0586C5.60497 40.0586 0 34.5901 0 27.8456V12.213C0 5.46751 5.60497 0 12.52 0V0.97704C9.33794 0.97704 6.46134 2.23351 4.375 4.26771C2.28966 6.30288 1.0016 9.10894 1.0016 12.213V27.8456C1.0016 30.9497 2.28966 33.7557 4.375 35.7909C6.46134 37.8251 9.33794 39.0816 12.52 39.0816C15.7021 39.0816 18.5787 37.8251 20.6651 35.7909C22.7504 33.7557 24.0385 30.9497 24.0385 27.8456V12.213C24.0385 9.10894 22.7504 6.30288 20.6651 4.26771C18.5787 2.23351 15.7021 0.97704 12.52 0.97704V0C19.4351 0 25.0401 5.46751 25.0401 12.213V27.8456C25.0401 34.5901 19.4351 40.0586 12.52 40.0586Z" fill="white"/>
</g>
<path fill-rule="evenodd" clip-rule="evenodd" d="M12.52 8.3048V15.1441V7.32776C11.4123 7.32874 10.5178 8.20319 10.5168 9.28281V15.1441C10.5168 16.2237 11.4143 17.0982 12.52 17.0982C13.6258 17.0982 14.5232 16.2237 14.5232 15.1441V9.28281C14.5222 8.20319 13.6278 7.32874 12.52 7.32776V8.3048Z" fill="#F67280"/>
</svg>
