<svg xmlns="http://www.w3.org/2000/svg" width="14" height="14" viewBox="0 0 14 14" fill="none">
    <path fill-rule="evenodd" clip-rule="evenodd" d="M0.541687 7.00008C0.541687 6.6549 0.821509 6.37508 1.16669 6.37508H12.8334C13.1785 6.37508 13.4584 6.6549 13.4584 7.00008C13.4584 7.34526 13.1785 7.62508 12.8334 7.62508H1.16669C0.821509 7.62508 0.541687 7.34526 0.541687 7.00008Z" fill="white"/>
    <path fill-rule="evenodd" clip-rule="evenodd" d="M7.44196 0.724806C7.68604 0.968884 7.68604 1.36461 7.44196 1.60869L2.05057 7.00008L7.44196 12.3915C7.68604 12.6356 7.68604 13.0313 7.44196 13.2754C7.19788 13.5194 6.80216 13.5194 6.55808 13.2754L0.724745 7.44202C0.480668 7.19795 0.480668 6.80222 0.724745 6.55814L6.55808 0.724806C6.80216 0.480729 7.19788 0.480729 7.44196 0.724806Z" fill="white"/>
</svg>